<?xml version="1.0" encoding="utf-8"?>
<!-- Generator: Adobe Illustrator 26.0.3, SVG Export Plug-In . SVG Version: 6.00 Build 0)  -->
<svg version="1.1" id="Layer_1" xmlns="http://www.w3.org/2000/svg" xmlns:xlink="http://www.w3.org/1999/xlink" x="0px" y="0px"
	 viewBox="0 0 240 266" style="enable-background:new 0 0 240 266;" xml:space="preserve">
<style type="text/css">
	.st0{display:none;}
	.st1{fill:#F7931E;}
</style>
<rect id="Background" x="-277" class="st0" width="800" height="340"/>
<g id="Logo">
	<g>
		<g>
			<path class="st1" d="M106.88,162.05c0.34,0.07,0.67,0.11,1.01,0.11c2.02,0,3.88-1.27,4.57-3.25c0.8-2.3-0.23-4.84-2.41-5.93
				c-4.59-2.29-9.01-6.95-7.89-11.8c0.31-1.33,1.05-2.46,1.99-3.89c0.55-0.84,1.15-1.76,1.73-2.81c0.1,0.05,0.2,0.1,0.31,0.14
				c0.59,0.24,1.22,0.36,1.84,0.36c0.86,0,1.72-0.23,2.48-0.68c0.41-0.25,10.14-6.2,8.79-18.67c-0.07-0.69-0.17-1.36-0.29-2
				c1.53,1.2,3,2.79,4.25,4.89c4.93,8.24,2.45,13.36,2.12,13.96c-1.23,1.73-1.12,3.97,0.17,5.66c0.92,1.19,2.34,1.82,3.8,1.82
				c0.62,0,1.25-0.11,1.85-0.34c0.41-0.16,2.57-1.08,4.89-3.67c0.19,2.01,0.11,4.29-0.46,6.77c-0.99,4.29-3.5,7.87-7.06,10.08
				c-2,1.24-2.82,3.74-1.94,5.92c0.75,1.87,2.55,3.04,4.49,3.04c0.33,0,0.67-0.03,1-0.1c14.61-3.08,25.12-9.84,31.23-20.08
				c9.85-16.51,4.33-35.81,4.09-36.62c-0.54-1.84-2.11-3.17-3.98-3.43c1.2-6.53,0.21-12.49-1.37-17.24
				c-3.29-9.88-9.81-16.47-10.08-16.75c-0.93-0.93-2.17-1.42-3.43-1.42c-0.79,0-1.59,0.19-2.32,0.59c-1.28,0.7-2.15,1.92-2.43,3.29
				c-1.72-3.37-4.18-6.88-7.68-10.38c-12.89-12.89-7.38-25.33-7.01-26.12c0.96-1.86,0.6-4.09-0.87-5.58
				c-0.92-0.94-2.16-1.42-3.43-1.42c-0.75,0-1.51,0.17-2.21,0.52c-14.4,7.2-23.52,20.07-26.38,37.21c-0.15,0.93-0.29,1.85-0.4,2.75
				c-0.4-0.28-0.85-0.5-1.34-0.65c-0.46-0.14-0.94-0.21-1.4-0.21c-1.59,0-3.11,0.78-4.03,2.16c-9.21,13.82-8.66,25.43-6.57,32.74
				c0.03,0.11,0.06,0.22,0.1,0.33c-0.91-0.86-1.4-1.5-1.42-1.52c-0.92-1.28-2.39-2.01-3.93-2.01c-0.3,0-0.61,0.03-0.92,0.09
				c-1.85,0.36-3.33,1.75-3.78,3.58c-3.6,14.4-1.63,28.65,5.55,40.14C84.7,152.13,95.18,159.58,106.88,162.05z M77.28,102.65
				c0,0,5.72,7.92,15.85,7.92c0,0-15.85-15.85,0-39.61c0,0,0,15.85,7.92,15.85c0,0-7.92-39.61,23.77-55.46
				c0,0-7.92,15.85,7.92,31.69c15.85,15.85,7.92,31.69,7.92,31.69c0.04,0.06,0.11,0.09,0.22,0.09c1.68,0,11.14-7.95,7.71-23.86
				c0,0,23.77,23.77,0,47.54c0,0,0.57,0.18,1.52,0.18c2.66,0,8.3-1.44,12.7-12.36c0,0,12.19,41.34-31.68,50.6
				c4.53-2.81,7.9-7.35,9.23-13.11c2.72-11.76-3.64-19.94-3.64-19.94c-2.14,9.26-7.25,11.23-7.25,11.23s4.89-7.46-2.05-19.06
				c-6.01-10.03-15.95-10.87-19.1-10.87c-0.63,0-0.99,0.03-0.99,0.03s6.13,1.41,7.15,10.95c1.03,9.53-6.46,14-6.46,14
				c-1.7-6.59-4.77-7.3-4.77-7.3c1.03,9.53-4.46,11.36-5.81,17.24c-1.64,7.11,3.56,13.79,10.45,17.22
				C87.23,152.94,70.2,130.96,77.28,102.65z"/>
			<path class="st1" d="M208.82,218.92c-0.26-1.7-1.39-3.13-2.99-3.77l-48.1-19.29l24.23-10.34l10.03,6.11
				c0.78,0.48,1.65,0.71,2.52,0.71c1.39,0,2.75-0.59,3.7-1.72l3.04-3.6c1.71-2.02,1.48-5.05-0.53-6.78l-3.18-2.76l7.15-3.39
				c1.69-0.8,2.77-2.51,2.77-4.38v-15.66c0-1.6-0.79-3.1-2.12-4c-0.82-0.56-1.77-0.84-2.73-0.84c-0.6,0-1.2,0.11-1.77,0.34
				l-81.26,31.98c-0.42-0.38-0.91-0.69-1.46-0.9l-78.96-31.08c-0.57-0.23-1.17-0.34-1.77-0.34c-0.96,0-1.91,0.28-2.73,0.84
				c-1.32,0.9-2.12,2.4-2.12,4v15.66c0,1.87,1.08,3.58,2.77,4.38l7.15,3.39l-3.18,2.76c-2,1.74-2.24,4.76-0.53,6.78l3.04,3.6
				c0.95,1.12,2.32,1.72,3.7,1.72c0.86,0,1.73-0.23,2.52-0.71l10.03-6.11l24.66,10.53l-48.5,19.09c-1.6,0.63-2.75,2.07-3.01,3.77
				c-0.26,1.7,0.4,3.42,1.74,4.5l18.52,15.02c0.88,0.71,1.96,1.08,3.05,1.08c0.64,0,1.29-0.13,1.9-0.39l63.73-27.21
				c0.26,0.18,0.54,0.34,0.85,0.47l62.63,26.74c0.61,0.26,1.26,0.39,1.9,0.39c1.09,0,2.17-0.37,3.05-1.08l18.52-15.02
				C208.41,222.32,209.07,220.62,208.82,218.92z M57.65,180.08l-12.16,7.41l-3.04-3.6l8.78-7.62l-13.85-6.56v-7.58l34.06,11.09
				l-34.06-16.09v-3.08l76,29.91l-24.27,9.55L57.65,180.08z M54.5,234.67l-2.61-2.11l54.75-25.38l-58.91,22.01l-11.76-9.54
				l166.64-65.59v3.08l-34.06,16.09l34.06-11.09v7.58l-13.85,6.56l8.78,7.62l-3.04,3.6l-12.16-7.41L54.5,234.67z M192.27,229.18
				c-2.4-0.88-15.81-5.81-29.23-10.74c-14.74-5.59-29.48-11.18-29.48-11.18s14.28,6.71,28.56,13.42
				c10.59,4.84,21.17,9.68,25.98,11.89l-2.59,2.1l-59.34-25.33l25.26-10.78l52.6,21.09L192.27,229.18z"/>
		</g>
	</g>
</g>
</svg>
